<svg width="29" height="18" viewBox="0 0 29 18" fill="none" xmlns="http://www.w3.org/2000/svg">
<path d="M3.22759e-05 17.2803V3.12027C3.22759e-05 2.54427 0.136032 2.02427 0.408032 1.56027C0.696032 1.08027 1.07203 0.704272 1.53603 0.432273C2.01603 0.144273 2.54403 0.000272751 3.12003 0.000272751H14.136C14.712 0.000272751 15.24 0.144273 15.72 0.432273C16.2 0.704272 16.576 1.08027 16.848 1.56027C17.136 2.02427 17.28 2.54427 17.28 3.12027V17.2803H14.664V11.2323H2.59203V17.2803H3.22759e-05ZM2.59203 8.64027H14.664V3.19227C14.664 3.03227 14.608 2.89627 14.496 2.78427C14.384 2.65627 14.24 2.59227 14.064 2.59227H3.19203C3.03203 2.59227 2.88803 2.65627 2.76003 2.78427C2.64803 2.89627 2.59203 3.03227 2.59203 3.19227V8.64027ZM25.4875 17.2803V14.6883H28.0795V17.2803H25.4875Z" fill="#8840F4"/>
</svg>
