<svg width="50" height="29" viewBox="0 0 50 29" fill="none" xmlns="http://www.w3.org/2000/svg">
<path d="M23.12 28.7998V25.0798L28.8 23.1998V23.9598H32.32V28.7998H23.12ZM5.4 28.7998C4.41333 28.7998 3.50666 28.5598 2.68 28.0798C1.85333 27.5998 1.2 26.9465 0.719997 26.1198C0.239996 25.2931 -3.60608e-06 24.3865 -3.60608e-06 23.3998V5.3998C-3.60608e-06 4.41314 0.239996 3.50647 0.719997 2.6798C1.2 1.85314 1.85333 1.1998 2.68 0.719804C3.50666 0.239804 4.41333 -0.000196457 5.4 -0.000196457H23.4C24.3867 -0.000196457 25.28 0.239804 26.08 0.719804C26.9067 1.1998 27.56 1.85314 28.04 2.6798C28.5467 3.50647 28.8 4.41314 28.8 5.3998V23.3998C28.8 24.3865 28.5467 25.2931 28.04 26.1198C27.56 26.9465 26.9067 27.5998 26.08 28.0798C25.28 28.5598 24.3867 28.7998 23.4 28.7998H5.4ZM5.52 23.9598H23.24C23.4267 23.9598 23.5867 23.8931 23.72 23.7598C23.88 23.6265 23.96 23.4531 23.96 23.2398V5.5598C23.96 5.34647 23.88 5.17314 23.72 5.0398C23.5867 4.90647 23.4267 4.8398 23.24 4.8398H5.52C5.33333 4.8398 5.16 4.90647 5 5.0398C4.86666 5.17314 4.8 5.34647 4.8 5.5598V23.2398C4.8 23.4531 4.86666 23.6265 5 23.7598C5.16 23.8931 5.33333 23.9598 5.52 23.9598ZM44.8656 28.7998V24.0398H49.6256V28.7998H44.8656Z" fill="#E8430C"/>
</svg>
