<svg width="40" height="40" viewBox="0 0 40 40" fill="none" xmlns="http://www.w3.org/2000/svg">
<path fill-rule="evenodd" clip-rule="evenodd" d="M35.3926 2H4.71371C3.24629 2 2 3.16057 2 4.59029V35.408C2 36.8394 2.81771 38 4.28514 38H34.964C36.4331 38 38 36.8394 38 35.408V4.59029C38 3.16057 36.8617 2 35.3926 2ZM15.7143 15.7143H20.5606V18.1846H20.6137C21.3526 16.8526 23.5349 15.5 26.2331 15.5C31.412 15.5 32.8571 18.2497 32.8571 23.3429V32.8571H27.7143V24.2806C27.7143 22.0006 26.804 20 24.6749 20C22.0897 20 20.8571 21.7503 20.8571 24.6234V32.8571H15.7143V15.7143ZM7.14286 32.8571H12.2857V15.7143H7.14286V32.8571ZM12.9286 9.71429C12.9386 10.1425 12.8629 10.5684 12.7059 10.967C12.549 11.3656 12.314 11.7288 12.0147 12.0352C11.7154 12.3416 11.3579 12.5852 10.9631 12.7515C10.5684 12.9178 10.1444 13.0035 9.71603 13.0036C9.28767 13.0038 8.86361 12.9183 8.46878 12.7522C8.07394 12.5861 7.71628 12.3427 7.41682 12.0364C7.11737 11.7301 6.88216 11.3671 6.72501 10.9686C6.56786 10.5701 6.49194 10.1442 6.50171 9.716C6.52088 8.87659 6.86774 8.078 7.4681 7.49103C8.06847 6.90406 8.87467 6.5753 9.7143 6.57508C10.5539 6.57485 11.3603 6.90318 11.961 7.48983C12.5617 8.07648 12.909 8.87489 12.9286 9.71429Z" fill="white"/>
</svg>
