<svg width="40" height="40" viewBox="0 0 40 40" fill="none" xmlns="http://www.w3.org/2000/svg">
<path d="M20 13.3496C16.4054 13.3496 13.35 16.405 13.35 19.9996C13.35 23.5942 16.4054 26.6496 20 26.6496C23.5946 26.6496 26.65 23.5942 26.65 19.9996C26.65 16.405 23.5946 13.3496 20 13.3496Z" fill="white"/>
<path d="M28.1182 1H12.0545C5.83636 1 1 5.83636 1 11.8818V27.9455C1 34.1636 5.83636 39 12.0545 39H28.1182C34.1636 39 39 34.1636 39 27.9455V11.8818C39 5.83636 34.1636 1 28.1182 1ZM20 30.0182C14.4727 30.0182 10.1545 25.5273 10.1545 20.1727C10.1545 14.8182 14.4727 10.1545 20 10.1545C25.5273 10.1545 29.8455 14.6455 29.8455 20C29.8455 25.3545 25.5273 30.0182 20 30.0182ZM30.1909 12.2273C28.9818 12.2273 27.9455 11.1909 27.9455 9.98182C27.9455 8.77273 28.9818 7.73636 30.1909 7.73636C31.4 7.73636 32.4364 8.77273 32.4364 9.98182C32.4364 11.1909 31.4 12.2273 30.1909 12.2273Z" fill="white"/>
</svg>
