<svg width="177" height="54" viewBox="0 0 177 54" fill="none" xmlns="http://www.w3.org/2000/svg">
<g clip-path="url(#clip0_2116_116)">
<path d="M135.966 53.5608L137.582 49.6248L137.694 50.7608L133.502 41.5288H134.862L137.726 47.9288C137.811 48.0995 137.897 48.3021 137.982 48.5368C138.067 48.7608 138.147 48.9848 138.222 49.2088L137.774 49.1608C137.849 48.9795 137.918 48.7928 137.982 48.6008C138.057 48.4088 138.126 48.2221 138.19 48.0408L140.702 41.5288H142.078L138.702 49.8808L137.262 53.5608H135.966Z" fill="white"/>
<path d="M130.05 50.041C129.26 50.041 128.556 49.8544 127.938 49.481C127.319 49.097 126.828 48.5797 126.466 47.929C126.114 47.2677 125.938 46.521 125.938 45.689C125.938 44.857 126.114 44.1157 126.466 43.465C126.828 42.8037 127.319 42.2864 127.938 41.913C128.556 41.5397 129.266 41.353 130.066 41.353C130.78 41.353 131.431 41.497 132.018 41.785C132.604 42.0624 133.074 42.4517 133.426 42.953L132.722 43.817C132.519 43.5504 132.274 43.3157 131.986 43.113C131.708 42.9104 131.404 42.7557 131.074 42.649C130.754 42.5317 130.434 42.473 130.114 42.473C129.548 42.473 129.042 42.617 128.594 42.905C128.146 43.1824 127.788 43.561 127.522 44.041C127.266 44.521 127.138 45.0704 127.138 45.689C127.138 46.3077 127.266 46.8624 127.522 47.353C127.788 47.833 128.146 48.2117 128.594 48.489C129.042 48.7664 129.543 48.905 130.098 48.905C130.418 48.905 130.732 48.857 131.042 48.761C131.351 48.6544 131.644 48.505 131.922 48.313C132.199 48.121 132.455 47.881 132.69 47.593L133.394 48.457C133.031 48.937 132.546 49.321 131.938 49.609C131.33 49.897 130.7 50.041 130.05 50.041Z" fill="white"/>
<path d="M117.471 49.881V41.529H118.655L118.703 43.273L118.511 43.353C118.617 42.9904 118.825 42.6597 119.135 42.361C119.444 42.0624 119.812 41.8224 120.239 41.641C120.676 41.449 121.124 41.353 121.583 41.353C122.201 41.353 122.719 41.4757 123.135 41.721C123.551 41.9664 123.865 42.345 124.079 42.857C124.292 43.369 124.399 44.0197 124.399 44.809V49.881H123.183V44.873C123.183 44.3184 123.108 43.865 122.959 43.513C122.82 43.1504 122.601 42.8837 122.303 42.713C122.004 42.5424 121.636 42.4624 121.199 42.473C120.836 42.473 120.5 42.537 120.191 42.665C119.881 42.7824 119.615 42.9477 119.391 43.161C119.167 43.3744 118.991 43.6197 118.863 43.897C118.735 44.1744 118.671 44.473 118.671 44.793V49.881H118.079C118.004 49.881 117.919 49.881 117.823 49.881C117.727 49.881 117.609 49.881 117.471 49.881Z" fill="white"/>
<path d="M112.327 50.0409C111.495 50.0409 110.753 49.8596 110.103 49.4969C109.463 49.1342 108.961 48.6276 108.599 47.9769C108.236 47.3262 108.055 46.5796 108.055 45.7369C108.055 45.0862 108.156 44.4996 108.359 43.9769C108.561 43.4436 108.844 42.9796 109.207 42.5849C109.58 42.1902 110.023 41.8862 110.535 41.6729C111.047 41.4489 111.601 41.3369 112.199 41.3369C112.764 41.3369 113.276 41.4382 113.735 41.6409C114.204 41.8436 114.604 42.1262 114.935 42.4889C115.276 42.8409 115.532 43.2622 115.703 43.7529C115.873 44.2436 115.948 44.7822 115.927 45.3689L115.911 45.9289H108.951L108.775 44.9209H114.999L114.711 45.1929V44.8089C114.689 44.4249 114.577 44.0569 114.375 43.7049C114.172 43.3422 113.884 43.0489 113.511 42.8249C113.148 42.6009 112.711 42.4889 112.199 42.4889C111.601 42.4889 111.084 42.6116 110.647 42.8569C110.209 43.0916 109.873 43.4436 109.639 43.9129C109.404 44.3822 109.287 44.9636 109.287 45.6569C109.287 46.3182 109.415 46.8942 109.671 47.3849C109.927 47.8649 110.289 48.2382 110.759 48.5049C111.239 48.7716 111.815 48.9049 112.487 48.9049C112.881 48.9049 113.271 48.8409 113.655 48.7129C114.049 48.5742 114.481 48.3076 114.951 47.9129L115.575 48.7769C115.329 49.0222 115.036 49.2409 114.695 49.4329C114.353 49.6142 113.98 49.7636 113.575 49.8809C113.169 49.9876 112.753 50.0409 112.327 50.0409Z" fill="white"/>
<path d="M102.344 53.561C101.726 53.561 101.139 53.465 100.584 53.273C100.03 53.081 99.571 52.841 99.2083 52.553L99.6883 51.545C99.9017 51.7157 100.147 51.865 100.424 51.993C100.712 52.1317 101.022 52.2384 101.352 52.313C101.683 52.3984 102.019 52.441 102.36 52.441C102.979 52.441 103.502 52.3237 103.928 52.089C104.366 51.865 104.696 51.529 104.92 51.081C105.155 50.633 105.272 50.0784 105.272 49.417V47.817L105.464 47.769C105.368 48.1744 105.16 48.553 104.84 48.905C104.52 49.2464 104.131 49.5237 103.672 49.737C103.214 49.9397 102.728 50.041 102.216 50.041C101.438 50.041 100.739 49.8544 100.12 49.481C99.5123 49.1077 99.0323 48.5957 98.6803 47.945C98.3283 47.2837 98.1523 46.537 98.1523 45.705C98.1523 44.8624 98.3283 44.1157 98.6803 43.465C99.043 42.8037 99.5283 42.2864 100.136 41.913C100.744 41.5397 101.427 41.353 102.184 41.353C102.515 41.353 102.835 41.3957 103.144 41.481C103.454 41.5557 103.736 41.6677 103.992 41.817C104.259 41.9664 104.499 42.137 104.712 42.329C104.926 42.521 105.102 42.729 105.24 42.953C105.39 43.177 105.496 43.4064 105.56 43.641L105.224 43.593L105.272 41.529H106.472V49.369C106.472 50.041 106.376 50.633 106.184 51.145C105.992 51.6677 105.71 52.105 105.336 52.457C104.974 52.8197 104.536 53.0917 104.024 53.273C103.523 53.465 102.963 53.561 102.344 53.561ZM102.36 48.889C102.926 48.889 103.427 48.7557 103.864 48.489C104.312 48.2117 104.664 47.833 104.92 47.353C105.176 46.873 105.304 46.3184 105.304 45.689C105.304 45.0704 105.176 44.521 104.92 44.041C104.675 43.561 104.328 43.1824 103.88 42.905C103.432 42.6277 102.926 42.489 102.36 42.489C101.784 42.489 101.272 42.6277 100.824 42.905C100.387 43.1824 100.04 43.561 99.7843 44.041C99.5283 44.521 99.4003 45.0704 99.4003 45.689C99.4003 46.297 99.523 46.8464 99.7683 47.337C100.024 47.817 100.371 48.1957 100.808 48.473C101.256 48.7504 101.774 48.889 102.36 48.889Z" fill="white"/>
<path d="M92.247 50.041C91.5217 50.041 90.8657 49.8544 90.279 49.481C89.6923 49.097 89.2283 48.5797 88.887 47.929C88.5457 47.2677 88.375 46.521 88.375 45.689C88.375 44.8464 88.551 44.0997 88.903 43.449C89.255 42.7984 89.7243 42.2864 90.311 41.913C90.9083 41.5397 91.575 41.353 92.311 41.353C92.7483 41.353 93.1537 41.417 93.527 41.545C93.9003 41.673 94.231 41.8544 94.519 42.089C94.8177 42.313 95.063 42.5797 95.255 42.889C95.4577 43.1877 95.5963 43.513 95.671 43.865L95.319 43.689L95.367 41.529H96.567V49.881H95.351V47.833L95.671 47.625C95.5963 47.945 95.4523 48.2544 95.239 48.553C95.0257 48.841 94.7643 49.097 94.455 49.321C94.1563 49.545 93.815 49.721 93.431 49.849C93.0577 49.977 92.663 50.041 92.247 50.041ZM92.519 48.889C93.0737 48.889 93.5697 48.7557 94.007 48.489C94.4443 48.2117 94.7857 47.833 95.031 47.353C95.287 46.8624 95.415 46.3077 95.415 45.689C95.415 45.0704 95.287 44.521 95.031 44.041C94.7857 43.561 94.4443 43.1824 94.007 42.905C93.5697 42.6277 93.0737 42.489 92.519 42.489C91.9537 42.489 91.4523 42.6277 91.015 42.905C90.5883 43.1824 90.247 43.561 89.991 44.041C89.7457 44.521 89.623 45.0704 89.623 45.689C89.623 46.297 89.7457 46.8464 89.991 47.337C90.2363 47.817 90.5777 48.1957 91.015 48.473C91.4523 48.7504 91.9537 48.889 92.519 48.889Z" fill="white"/>
<path d="M81.2559 49.881V38.041H82.4559V49.881H81.2559Z" fill="white"/>
<path d="M74.7255 50.041C74.0002 50.041 73.3442 49.8544 72.7575 49.481C72.1708 49.097 71.7068 48.5797 71.3655 47.929C71.0242 47.2677 70.8535 46.521 70.8535 45.689C70.8535 44.8464 71.0295 44.0997 71.3815 43.449C71.7335 42.7984 72.2028 42.2864 72.7895 41.913C73.3868 41.5397 74.0535 41.353 74.7895 41.353C75.2268 41.353 75.6322 41.417 76.0055 41.545C76.3788 41.673 76.7095 41.8544 76.9975 42.089C77.2962 42.313 77.5415 42.5797 77.7335 42.889C77.9362 43.1877 78.0748 43.513 78.1495 43.865L77.7975 43.689L77.8455 41.529H79.0455V49.881H77.8295V47.833L78.1495 47.625C78.0748 47.945 77.9308 48.2544 77.7175 48.553C77.5042 48.841 77.2428 49.097 76.9335 49.321C76.6348 49.545 76.2935 49.721 75.9095 49.849C75.5362 49.977 75.1415 50.041 74.7255 50.041ZM74.9975 48.889C75.5522 48.889 76.0482 48.7557 76.4855 48.489C76.9228 48.2117 77.2642 47.833 77.5095 47.353C77.7655 46.8624 77.8935 46.3077 77.8935 45.689C77.8935 45.0704 77.7655 44.521 77.5095 44.041C77.2642 43.561 76.9228 43.1824 76.4855 42.905C76.0482 42.6277 75.5522 42.489 74.9975 42.489C74.4322 42.489 73.9308 42.6277 73.4935 42.905C73.0668 43.1824 72.7255 43.561 72.4695 44.041C72.2242 44.521 72.1015 45.0704 72.1015 45.689C72.1015 46.297 72.2242 46.8464 72.4695 47.337C72.7148 47.817 73.0562 48.1957 73.4935 48.473C73.9308 48.7504 74.4322 48.889 74.9975 48.889Z" fill="white"/>
<path d="M66.9153 49.8809V39.3369H68.1153V49.8809H66.9153ZM65.0273 42.6809V41.5289H70.2273V42.6809H65.0273Z" fill="white"/>
<path d="M62.1032 49.8811V41.5291H63.3032V49.8811H62.1032ZM62.6952 39.7211C62.3965 39.7211 62.1672 39.6464 62.0072 39.4971C61.8579 39.3371 61.7832 39.1237 61.7832 38.8571C61.7832 38.5904 61.8632 38.3771 62.0232 38.2171C62.1832 38.0571 62.4072 37.9771 62.6952 37.9771C62.9832 37.9771 63.2072 38.0571 63.3672 38.2171C63.5272 38.3664 63.6072 38.5797 63.6072 38.8571C63.6072 39.1131 63.5272 39.3211 63.3672 39.4811C63.2072 39.6411 62.9832 39.7211 62.6952 39.7211Z" fill="white"/>
<path d="M55.4791 53.561C54.8604 53.561 54.2738 53.465 53.7191 53.273C53.1644 53.081 52.7058 52.841 52.3431 52.553L52.8231 51.545C53.0364 51.7157 53.2818 51.865 53.5591 51.993C53.8471 52.1317 54.1564 52.2384 54.4871 52.313C54.8178 52.3984 55.1538 52.441 55.4951 52.441C56.1138 52.441 56.6364 52.3237 57.0631 52.089C57.5004 51.865 57.8311 51.529 58.0551 51.081C58.2898 50.633 58.4071 50.0784 58.4071 49.417V47.817L58.5991 47.769C58.5031 48.1744 58.2951 48.553 57.9751 48.905C57.6551 49.2464 57.2658 49.5237 56.8071 49.737C56.3484 49.9397 55.8631 50.041 55.3511 50.041C54.5724 50.041 53.8738 49.8544 53.2551 49.481C52.6471 49.1077 52.1671 48.5957 51.8151 47.945C51.4631 47.2837 51.2871 46.537 51.2871 45.705C51.2871 44.8624 51.4631 44.1157 51.8151 43.465C52.1778 42.8037 52.6631 42.2864 53.2711 41.913C53.8791 41.5397 54.5618 41.353 55.3191 41.353C55.6498 41.353 55.9698 41.3957 56.2791 41.481C56.5884 41.5557 56.8711 41.6677 57.1271 41.817C57.3938 41.9664 57.6338 42.137 57.8471 42.329C58.0604 42.521 58.2364 42.729 58.3751 42.953C58.5244 43.177 58.6311 43.4064 58.6951 43.641L58.3591 43.593L58.4071 41.529H59.6071V49.369C59.6071 50.041 59.5111 50.633 59.3191 51.145C59.1271 51.6677 58.8444 52.105 58.4711 52.457C58.1084 52.8197 57.6711 53.0917 57.1591 53.273C56.6578 53.465 56.0978 53.561 55.4791 53.561ZM55.4951 48.889C56.0604 48.889 56.5618 48.7557 56.9991 48.489C57.4471 48.2117 57.7991 47.833 58.0551 47.353C58.3111 46.873 58.4391 46.3184 58.4391 45.689C58.4391 45.0704 58.3111 44.521 58.0551 44.041C57.8098 43.561 57.4631 43.1824 57.0151 42.905C56.5671 42.6277 56.0604 42.489 55.4951 42.489C54.9191 42.489 54.4071 42.6277 53.9591 42.905C53.5218 43.1824 53.1751 43.561 52.9191 44.041C52.6631 44.521 52.5351 45.0704 52.5351 45.689C52.5351 46.297 52.6578 46.8464 52.9031 47.337C53.1591 47.817 53.5058 48.1957 53.9431 48.473C54.3911 48.7504 54.9084 48.889 55.4951 48.889Z" fill="white"/>
<path d="M48.2184 49.8811V41.5291H49.4184V49.8811H48.2184ZM48.8104 39.7211C48.5118 39.7211 48.2824 39.6464 48.1224 39.4971C47.9731 39.3371 47.8984 39.1237 47.8984 38.8571C47.8984 38.5904 47.9784 38.3771 48.1384 38.2171C48.2984 38.0571 48.5224 37.9771 48.8104 37.9771C49.0984 37.9771 49.3224 38.0571 49.4824 38.2171C49.6424 38.3664 49.7224 38.5797 49.7224 38.8571C49.7224 39.1131 49.6424 39.3211 49.4824 39.4811C49.3224 39.6411 49.0984 39.7211 48.8104 39.7211Z" fill="white"/>
<path d="M36.6484 49.8812V38.6812H40.8724C41.6404 38.6812 42.3391 38.8198 42.9684 39.0972C43.6084 39.3638 44.1631 39.7478 44.6324 40.2492C45.1018 40.7505 45.4644 41.3425 45.7204 42.0252C45.9764 42.7078 46.1044 43.4598 46.1044 44.2812C46.1044 45.1025 45.9764 45.8598 45.7204 46.5532C45.4644 47.2358 45.1018 47.8278 44.6324 48.3292C44.1738 48.8198 43.6244 49.2038 42.9844 49.4812C42.3444 49.7478 41.6404 49.8812 40.8724 49.8812H36.6484ZM37.8964 48.8892L37.7524 48.6652H40.7924C41.3791 48.6652 41.9178 48.5638 42.4084 48.3612C42.9098 48.1478 43.3364 47.8492 43.6884 47.4652C44.0511 47.0705 44.3284 46.6065 44.5204 46.0732C44.7231 45.5398 44.8244 44.9425 44.8244 44.2812C44.8244 43.6198 44.7231 43.0225 44.5204 42.4892C44.3284 41.9558 44.0511 41.4972 43.6884 41.1132C43.3258 40.7185 42.8991 40.4198 42.4084 40.2172C41.9178 40.0038 41.3791 39.8972 40.7924 39.8972H37.7044L37.8964 39.7052V48.8892Z" fill="white"/>
<path d="M46.704 0.690918L37.1689 29.1977H28.4612L23.3065 12.8983L18.1973 29.1977H9.53515L0 0.690918H9.14797L14.2116 19.0324L19.169 0.690918H28.0209L33.0314 19.1311L38.095 0.690918H46.704Z" fill="white"/>
<path d="M47.9258 14.9406C47.9258 6.27854 53.6195 0.0078125 61.7882 0.0078125C65.5309 0.0078125 68.2563 1.32117 69.9644 3.60627V0.691064H78.6265V29.1978H69.9644V26.2826C68.2639 28.5677 65.5385 29.8811 61.7882 29.8811C53.6119 29.8811 47.9258 23.6028 47.9258 14.9482V14.9406ZM70.1087 14.9406C70.1087 10.5602 67.3833 7.40211 63.1547 7.40211C58.9261 7.40211 56.3905 10.5678 56.3905 14.9406C56.3905 19.3135 59.0172 22.4792 63.1547 22.4792C67.2922 22.4792 70.1087 19.3135 70.1087 14.9406Z" fill="white"/>
<path d="M98.8138 29.8811C90.0075 29.8811 83.6836 23.6028 83.6836 14.9482C83.6836 6.29372 90.0075 0.0078125 98.8138 0.0078125C106.254 0.0078125 111.849 4.77539 112.874 10.8563H104.12C103.437 8.91285 101.539 7.54635 98.8138 7.54635C94.775 7.54635 92.1483 10.6589 92.1483 14.9406C92.1483 19.2224 94.775 22.3349 98.8138 22.3349C101.486 22.3349 103.483 20.976 104.265 18.9263H113.025C111.568 25.5462 106.018 29.8735 98.8214 29.8735L98.8138 29.8811Z" fill="white"/>
<path d="M117.254 17.18V0.690918H125.916V15.7224C125.916 20.0497 127.67 22.4335 130.927 22.4335C134.183 22.4335 136.377 19.7536 136.377 15.3277V0.690918H145.039V29.1977H136.377V26.2825C134.677 28.5676 132.05 29.8809 128.398 29.8809C121.779 29.8809 117.254 25.0678 117.254 17.18Z" fill="white"/>
<path d="M176.514 9.25426H168.147C167.859 7.50058 165.862 6.43015 163.334 6.43015C160.806 6.43015 158.81 7.35634 158.81 8.61656C158.81 10.0286 160.708 10.7119 165.574 11.4862C173.993 12.754 177.007 15.525 177.007 20.4368C177.007 26.2748 170.873 29.8733 163.63 29.8733C156.388 29.8733 150.542 26.1761 150.254 20.1939H158.62C158.908 22.0462 161.049 23.2609 163.775 23.2609C166.5 23.2609 168.588 22.236 168.588 20.9227C168.588 19.6093 166.644 18.6831 161.725 17.9543C154.915 16.9294 150.436 14.8417 150.436 9.04928C150.436 3.25683 156.229 0 163.471 0C170.713 0 176.172 3.59846 176.506 9.24667L176.514 9.25426Z" fill="white"/>
</g>
<defs>
<clipPath id="clip0_2116_116">
<rect width="177" height="54" fill="white"/>
</clipPath>
</defs>
</svg>
